<svg width="6" height="6" viewBox="0 0 6 6" fill="none" xmlns="http://www.w3.org/2000/svg">
<path d="M5.05826 5.07497C5.4253 4.70786 5.67525 4.24016 5.77649 3.731C5.87774 3.22184 5.82573 2.6941 5.62705 2.21449C5.42837 1.73489 5.09194 1.32498 4.66029 1.03657C4.22865 0.748172 3.72118 0.594238 3.20205 0.594238C2.68293 0.594238 2.17546 0.748172 1.74382 1.03657C1.31217 1.32498 0.975739 1.73489 0.777058 2.21449C0.578376 2.6941 0.52637 3.22184 0.627614 3.731C0.728858 4.24016 0.978806 4.70786 1.34585 5.07497L2.5839 3.83779C2.46151 3.71544 2.37816 3.55954 2.34437 3.38981C2.31059 3.22008 2.32791 3.04414 2.39412 2.88425C2.46034 2.72436 2.57248 2.5877 2.71637 2.49154C2.86026 2.39539 3.02943 2.34407 3.20249 2.34407C3.37555 2.34407 3.54472 2.39539 3.68861 2.49154C3.8325 2.5877 3.94465 2.72436 4.01086 2.88425C4.07708 3.04414 4.09439 3.22008 4.06061 3.38981C4.02683 3.55954 3.94347 3.71544 3.82108 3.83779L5.05826 5.07497Z" fill="#159643"/>
</svg>
